<?xml version="1.0" encoding="UTF-8"?>
<svg xmlns="http://www.w3.org/2000/svg" xmlns:xlink="http://www.w3.org/1999/xlink" width="314px" height="100px" viewBox="0 0 314 100" version="1.1">
<defs>
<clipPath id="clip1">
  <path d="M 0.0898438 0 L 313.53125 0 L 313.53125 99.667969 L 0.0898438 99.667969 Z M 0.0898438 0 "/>
</clipPath>
</defs>
<g id="surface1">
<g clip-path="url(#clip1)" clip-rule="nonzero">
<path style=" stroke:none;fill-rule:nonzero;fill:rgb(8.235294%,39.607843%,84.705882%);fill-opacity:1;" d="M 53.03125 20.210938 L 11.289062 20.210938 L 11.289062 50.238281 L 47.265625 50.238281 L 47.265625 60.285156 L 11.289062 60.285156 L 11.289062 97.707031 L 0.101562 97.707031 L 0.101562 10.164062 L 53.03125 10.164062 Z M 85.09375 99.207031 C 79.324219 99.207031 75.175781 98.050781 72.636719 95.742188 C 70.101562 93.433594 68.832031 89.542969 68.832031 84.078125 L 68.832031 0 L 79.671875 0 L 79.671875 81.191406 C 79.671875 84.269531 80.148438 86.371094 81.101562 87.496094 C 82.070312 88.605469 83.902344 89.160156 86.589844 89.160156 C 88.742188 89.160156 90.664062 88.929688 92.355469 88.464844 L 92.355469 98.398438 C 89.28125 98.9375 86.859375 99.207031 85.09375 99.207031 Z M 133.179688 99.667969 C 126.414062 99.667969 120.664062 98.191406 115.929688 95.234375 C 111.207031 92.261719 107.65625 88.210938 105.273438 83.085938 C 102.890625 77.972656 101.699219 72.21875 101.699219 65.828125 C 101.699219 59.4375 102.890625 53.679688 105.273438 48.550781 C 107.65625 43.441406 111.207031 39.398438 115.929688 36.425781 C 120.664062 33.46875 126.414062 31.992188 133.179688 31.992188 C 139.945312 31.992188 145.6875 33.46875 150.410156 36.425781 C 155.128906 39.398438 158.667969 43.441406 161.019531 48.550781 C 163.371094 53.679688 164.546875 59.4375 164.546875 65.828125 C 164.546875 72.21875 163.371094 77.972656 161.019531 83.085938 C 158.667969 88.210938 155.128906 92.261719 150.410156 95.234375 C 145.6875 98.191406 139.945312 99.667969 133.179688 99.667969 Z M 133.179688 89.851562 C 139.5625 89.851562 144.496094 87.621094 147.988281 83.152344 C 151.492188 78.6875 153.246094 72.914062 153.246094 65.828125 C 153.246094 58.746094 151.492188 52.988281 147.988281 48.550781 C 144.496094 44.132812 139.5625 41.921875 133.179688 41.921875 C 126.800781 41.921875 121.839844 44.132812 118.304688 48.550781 C 114.769531 52.988281 113 58.746094 113 65.828125 C 113 72.914062 114.769531 78.6875 118.304688 83.152344 C 121.839844 87.621094 126.800781 89.851562 133.179688 89.851562 Z M 256.433594 33.839844 L 267.734375 33.839844 L 248.132812 98.746094 L 236.484375 98.746094 L 220.683594 49.777344 L 205.003906 98.746094 L 193.355469 98.746094 L 173.636719 33.839844 L 184.9375 33.839844 L 199.234375 84.539062 L 214.457031 33.839844 L 226.914062 33.839844 L 242.25 84.539062 Z M 310.867188 32.453125 L 313.519531 32.453125 L 313.519531 42.617188 L 310.867188 42.617188 C 304.253906 42.617188 297.835938 45.273438 291.609375 50.585938 L 291.609375 97.707031 L 280.765625 97.707031 L 280.765625 33.839844 L 291.609375 33.839844 L 291.609375 41 C 297.910156 35.300781 304.332031 32.453125 310.867188 32.453125 Z M 310.867188 32.453125 "/>
</g>
</g>
</svg>
